<svg width="48" height="48" viewBox="0 0 48 48" fill="none" xmlns="http://www.w3.org/2000/svg">
<path d="M24 44C20.4667 44 17.5833 43.4833 15.35 42.45C13.1167 41.4167 12 40.1 12 38.5C12 37.6 12.4083 36.75 13.225 35.95C14.0417 35.15 15.1667 34.5 16.6 34L17.5 36.9C16.9667 37.0667 16.475 37.3 16.025 37.6C15.575 37.9 15.2167 38.2 14.95 38.5C15.5167 39.1667 16.6917 39.75 18.475 40.25C20.2583 40.75 22.1 41 24 41C25.9 41 27.75 40.75 29.55 40.25C31.35 39.75 32.5333 39.1667 33.1 38.5C32.8333 38.2333 32.4833 37.95 32.05 37.65C31.6167 37.35 31.1167 37.1 30.55 36.9L31.4 34C32.8333 34.5 33.9583 35.15 34.775 35.95C35.5917 36.75 36 37.6 36 38.5C36 40.1 34.8833 41.4167 32.65 42.45C30.4167 43.4833 27.5333 44 24 44ZM24 33.25C24.7 31.95 25.4417 30.7583 26.225 29.675C27.0083 28.5917 27.7833 27.5667 28.55 26.6C30.0167 24.7 31.175 23.0667 32.025 21.7C32.875 20.3333 33.3 18.5333 33.3 16.3C33.3 13.7 32.4 11.5 30.6 9.7C28.8 7.9 26.6 7 24 7C21.4 7 19.2 7.9 17.4 9.7C15.6 11.5 14.7 13.7 14.7 16.3C14.7 18.5333 15.125 20.3333 15.975 21.7C16.825 23.0667 17.9833 24.7 19.45 26.6C20.2167 27.5667 20.9917 28.5917 21.775 29.675C22.5583 30.7583 23.3 31.95 24 33.25ZM24 38.7C23.6 38.7 23.25 38.5833 22.95 38.35C22.65 38.1167 22.4333 37.8167 22.3 37.45C21.5 35.0167 20.5 33 19.3 31.4C18.1 29.8 16.9333 28.2667 15.8 26.8C14.6667 25.3333 13.7 23.8083 12.9 22.225C12.1 20.6417 11.7 18.6667 11.7 16.3C11.7 12.8667 12.8917 9.95833 15.275 7.575C17.6583 5.19167 20.5667 4 24 4C27.4333 4 30.3417 5.19167 32.725 7.575C35.1083 9.95833 36.3 12.8667 36.3 16.3C36.3 18.6667 35.9 20.6417 35.1 22.225C34.3 23.8083 33.3333 25.3333 32.2 26.8C31.0667 28.2667 29.9 29.8 28.7 31.4C27.5 33 26.5 35.0167 25.7 37.45C25.5667 37.8167 25.35 38.1167 25.05 38.35C24.75 38.5833 24.4 38.7 24 38.7ZM24 19.3C24.8333 19.3 25.5417 19.0083 26.125 18.425C26.7083 17.8417 27 17.1333 27 16.3C27 15.4667 26.7083 14.7583 26.125 14.175C25.5417 13.5917 24.8333 13.3 24 13.3C23.1667 13.3 22.4583 13.5917 21.875 14.175C21.2917 14.7583 21 15.4667 21 16.3C21 17.1333 21.2917 17.8417 21.875 18.425C22.4583 19.0083 23.1667 19.3 24 19.3Z" fill="#DC2A1C"/>
</svg>
