<svg width="182" height="46" viewBox="0 0 182 46" fill="none" xmlns="http://www.w3.org/2000/svg">
<path d="M41.95 17.3522H29.982V3.4002H19.55V17.3522H11.038V0.200195H0.606293V25.5442H19.358V45.0002H29.982V25.5442H41.95V17.3522ZM66.781 13.8962C62.749 13.8962 59.421 15.0482 56.861 17.1602L57.245 9.1602H79.901V0.200195H48.797L48.093 25.2242H58.333C59.805 23.3682 61.917 22.4722 64.477 22.4722C68.893 22.4722 71.965 25.1602 71.965 29.5122C71.965 33.7362 69.021 36.6162 64.477 36.6162C59.933 36.6162 56.861 33.8002 56.669 29.0642H45.725C45.597 39.0482 53.213 45.6402 64.285 45.6402C75.421 45.6402 82.909 38.9842 82.909 29.2562C82.909 19.9762 76.189 13.8962 66.781 13.8962ZM90.757 45.0002H100.933V10.9522L101.317 10.8882L110.661 41.1602H119.941L129.349 10.8882L129.733 10.9522V45.0002H139.909V0.200195H123.781L115.461 30.1522H115.205L106.885 0.200195H90.757V45.0002ZM181.996 18.8242H169.708V6.6642H160.94V18.8242H148.716V27.7202H160.94V39.8802H169.708V27.7202H181.996V18.8242Z" fill="#050038"/>
</svg>
