<svg width="162" height="87" viewBox="0 0 162 87" fill="none" xmlns="http://www.w3.org/2000/svg">
<path d="M81 0L113.043 51.75H48.9571L81 0Z" fill="white"/>
<path d="M10.0971 79C9.77711 79 9.49711 78.89 9.25711 78.67C9.03711 78.43 8.92711 78.15 8.92711 77.83V55.57H11.2671V77.83C11.2671 78.15 11.1571 78.43 10.9371 78.67C10.7171 78.89 10.4371 79 10.0971 79ZM1.81711 57.7C1.49711 57.7 1.23711 57.6 1.03711 57.4C0.837109 57.2 0.737109 56.95 0.737109 56.65C0.737109 56.33 0.837109 56.07 1.03711 55.87C1.23711 55.67 1.49711 55.57 1.81711 55.57H18.4071C18.7271 55.57 18.9871 55.67 19.1871 55.87C19.3871 56.07 19.4871 56.33 19.4871 56.65C19.4871 56.95 19.3871 57.2 19.1871 57.4C18.9871 57.6 18.7271 57.7 18.4071 57.7H1.81711ZM23.8153 86.02C23.4553 86.02 23.1653 85.91 22.9453 85.69C22.7453 85.49 22.6453 85.21 22.6453 84.85V70.69C22.6653 69.13 23.0353 67.73 23.7553 66.49C24.4953 65.23 25.4853 64.24 26.7253 63.52C27.9853 62.8 29.3953 62.44 30.9553 62.44C32.5553 62.44 33.9853 62.81 35.2453 63.55C36.5053 64.27 37.4953 65.26 38.2153 66.52C38.9553 67.78 39.3253 69.21 39.3253 70.81C39.3253 72.39 38.9653 73.81 38.2453 75.07C37.5453 76.33 36.5853 77.33 35.3653 78.07C34.1453 78.79 32.7653 79.15 31.2253 79.15C29.8853 79.15 28.6653 78.87 27.5653 78.31C26.4853 77.73 25.6153 76.97 24.9553 76.03V84.85C24.9553 85.21 24.8453 85.49 24.6253 85.69C24.4253 85.91 24.1553 86.02 23.8153 86.02ZM30.9553 77.05C32.1153 77.05 33.1553 76.78 34.0753 76.24C34.9953 75.7 35.7153 74.96 36.2353 74.02C36.7753 73.06 37.0453 71.99 37.0453 70.81C37.0453 69.61 36.7753 68.54 36.2353 67.6C35.7153 66.66 34.9953 65.92 34.0753 65.38C33.1553 64.82 32.1153 64.54 30.9553 64.54C29.8153 64.54 28.7853 64.82 27.8653 65.38C26.9453 65.92 26.2253 66.66 25.7053 67.6C25.1853 68.54 24.9253 69.61 24.9253 70.81C24.9253 71.99 25.1853 73.06 25.7053 74.02C26.2253 74.96 26.9453 75.7 27.8653 76.24C28.7853 76.78 29.8153 77.05 30.9553 77.05ZM50.9963 79.18C49.5763 79.18 48.3063 78.89 47.1863 78.31C46.0663 77.71 45.1763 76.84 44.5163 75.7C43.8763 74.56 43.5563 73.17 43.5563 71.53V63.73C43.5563 63.41 43.6663 63.14 43.8863 62.92C44.1063 62.7 44.3763 62.59 44.6963 62.59C45.0363 62.59 45.3163 62.7 45.5363 62.92C45.7563 63.14 45.8663 63.41 45.8663 63.73V71.53C45.8663 72.77 46.0963 73.79 46.5563 74.59C47.0363 75.39 47.6763 75.99 48.4763 76.39C49.2963 76.79 50.2163 76.99 51.2363 76.99C52.2163 76.99 53.0963 76.8 53.8763 76.42C54.6763 76.04 55.3063 75.52 55.7663 74.86C56.2263 74.2 56.4563 73.45 56.4563 72.61H58.1062C58.0463 73.87 57.6963 75 57.0563 76C56.4363 76.98 55.5963 77.76 54.5363 78.34C53.4763 78.9 52.2963 79.18 50.9963 79.18ZM57.5963 79C57.2563 79 56.9763 78.9 56.7563 78.7C56.5563 78.48 56.4563 78.19 56.4563 77.83V63.73C56.4563 63.39 56.5563 63.12 56.7563 62.92C56.9763 62.7 57.2563 62.59 57.5963 62.59C57.9363 62.59 58.2163 62.7 58.4363 62.92C58.6563 63.12 58.7663 63.39 58.7663 63.73V77.83C58.7663 78.19 58.6563 78.48 58.4363 78.7C58.2163 78.9 57.9363 79 57.5963 79ZM74.568 79C74.188 79 73.868 78.9 73.608 78.7C73.368 78.48 73.248 78.19 73.248 77.83V56.74C73.248 56.4 73.358 56.12 73.578 55.9C73.798 55.68 74.078 55.57 74.418 55.57H81.708C82.908 55.57 83.988 55.83 84.948 56.35C85.928 56.85 86.698 57.54 87.258 58.42C87.838 59.3 88.128 60.32 88.128 61.48C88.128 62.56 87.838 63.52 87.258 64.36C86.678 65.2 85.918 65.84 84.978 66.28C86.318 66.64 87.398 67.32 88.218 68.32C89.038 69.3 89.448 70.55 89.448 72.07C89.448 73.43 89.138 74.63 88.518 75.67C87.898 76.71 87.038 77.53 85.938 78.13C84.858 78.71 83.618 79 82.218 79H74.568ZM75.588 76.75H82.218C83.178 76.75 84.028 76.56 84.768 76.18C85.508 75.8 86.088 75.26 86.508 74.56C86.928 73.86 87.138 73.03 87.138 72.07C87.138 71.17 86.928 70.39 86.508 69.73C86.088 69.05 85.508 68.53 84.768 68.17C84.028 67.79 83.178 67.6 82.218 67.6H75.588V76.75ZM75.588 65.35H81.708C82.908 65.35 83.898 65.01 84.678 64.33C85.458 63.65 85.848 62.7 85.848 61.48C85.848 60.28 85.458 59.37 84.678 58.75C83.898 58.13 82.908 57.82 81.708 57.82H75.588V65.35ZM106.557 78.7C106.357 78.9 106.087 79 105.747 79C105.427 79 105.167 78.89 104.967 78.67L97.7974 70.81L104.667 62.95C104.867 62.73 105.117 62.61 105.417 62.59C105.717 62.57 105.977 62.65 106.197 62.83C106.437 63.05 106.567 63.3 106.587 63.58C106.607 63.84 106.517 64.09 106.317 64.33L100.677 70.69L106.617 77.23C106.817 77.45 106.917 77.7 106.917 77.98C106.917 78.24 106.797 78.48 106.557 78.7ZM94.9174 79C94.5774 79 94.3074 78.9 94.1074 78.7C93.9074 78.48 93.8074 78.2 93.8074 77.86V63.76C93.8074 63.4 93.9074 63.12 94.1074 62.92C94.3074 62.7 94.5774 62.59 94.9174 62.59C95.2774 62.59 95.5574 62.7 95.7574 62.92C95.9774 63.12 96.0874 63.4 96.0874 63.76V69.7H99.7474V71.8H96.0874V77.86C96.0874 78.2 95.9774 78.48 95.7574 78.7C95.5574 78.9 95.2774 79 94.9174 79ZM109.947 86.17C109.507 86.19 109.067 86.13 108.627 85.99C108.207 85.87 107.787 85.69 107.367 85.45C107.047 85.25 106.847 84.99 106.767 84.67C106.667 84.37 106.727 84.08 106.947 83.8C107.147 83.54 107.387 83.4 107.667 83.38C107.967 83.38 108.277 83.46 108.597 83.62C108.817 83.76 109.037 83.86 109.257 83.92C109.477 83.98 109.727 84.01 110.007 84.01C110.667 83.99 111.297 83.68 111.897 83.08C112.517 82.48 113.077 81.61 113.577 80.47L121.047 63.22C121.167 62.92 121.367 62.72 121.647 62.62C121.947 62.5 122.247 62.51 122.547 62.65C122.827 62.77 123.007 62.97 123.087 63.25C123.187 63.53 123.167 63.83 123.027 64.15L115.527 81.37C114.887 82.81 114.077 83.97 113.097 84.85C112.137 85.73 111.087 86.17 109.947 86.17ZM116.217 78.49C115.917 78.63 115.637 78.66 115.377 78.58C115.117 78.48 114.907 78.28 114.747 77.98L108.057 64.12C107.917 63.82 107.897 63.54 107.997 63.28C108.097 63.02 108.297 62.82 108.597 62.68C108.897 62.54 109.177 62.52 109.437 62.62C109.697 62.7 109.897 62.89 110.037 63.19L116.637 76.99C116.777 77.29 116.817 77.58 116.757 77.86C116.697 78.14 116.517 78.35 116.217 78.49ZM133.588 79.15C132.008 79.15 130.598 78.79 129.358 78.07C128.138 77.33 127.168 76.33 126.448 75.07C125.748 73.81 125.398 72.39 125.398 70.81C125.398 69.21 125.738 67.78 126.418 66.52C127.098 65.26 128.028 64.27 129.208 63.55C130.388 62.81 131.748 62.44 133.288 62.44C134.508 62.44 135.628 62.68 136.648 63.16C137.688 63.64 138.598 64.36 139.378 65.32C139.598 65.56 139.678 65.82 139.618 66.1C139.558 66.36 139.388 66.59 139.108 66.79C138.888 66.95 138.638 67.01 138.358 66.97C138.098 66.91 137.868 66.76 137.668 66.52C136.508 65.2 135.048 64.54 133.288 64.54C132.168 64.54 131.178 64.81 130.318 65.35C129.478 65.89 128.818 66.63 128.338 67.57C127.878 68.51 127.648 69.59 127.648 70.81C127.648 72.01 127.898 73.08 128.398 74.02C128.898 74.96 129.598 75.7 130.498 76.24C131.398 76.78 132.428 77.05 133.588 77.05C134.368 77.05 135.078 76.95 135.718 76.75C136.378 76.53 136.958 76.2 137.458 75.76C137.698 75.56 137.948 75.45 138.208 75.43C138.468 75.41 138.708 75.49 138.928 75.67C139.168 75.89 139.298 76.14 139.318 76.42C139.358 76.7 139.268 76.94 139.048 77.14C137.588 78.48 135.768 79.15 133.588 79.15ZM151.34 79.15C149.8 79.15 148.42 78.79 147.2 78.07C145.98 77.33 145.01 76.33 144.29 75.07C143.59 73.81 143.24 72.39 143.24 70.81C143.24 69.21 143.6 67.78 144.32 66.52C145.06 65.26 146.06 64.27 147.32 63.55C148.58 62.81 150 62.44 151.58 62.44C153.16 62.44 154.57 62.81 155.81 63.55C157.07 64.27 158.06 65.26 158.78 66.52C159.52 67.78 159.9 69.21 159.92 70.81L158.99 71.53C158.99 72.97 158.65 74.27 157.97 75.43C157.31 76.57 156.4 77.48 155.24 78.16C154.1 78.82 152.8 79.15 151.34 79.15ZM151.58 77.05C152.74 77.05 153.77 76.78 154.67 76.24C155.59 75.7 156.31 74.96 156.83 74.02C157.37 73.06 157.64 71.99 157.64 70.81C157.64 69.61 157.37 68.54 156.83 67.6C156.31 66.66 155.59 65.92 154.67 65.38C153.77 64.82 152.74 64.54 151.58 64.54C150.44 64.54 149.41 64.82 148.49 65.38C147.57 65.92 146.84 66.66 146.3 67.6C145.76 68.54 145.49 69.61 145.49 70.81C145.49 71.99 145.76 73.06 146.3 74.02C146.84 74.96 147.57 75.7 148.49 76.24C149.41 76.78 150.44 77.05 151.58 77.05ZM158.75 79C158.41 79 158.13 78.9 157.91 78.7C157.69 78.48 157.58 78.2 157.58 77.86V72.73L158.15 70.36L159.92 70.81V77.86C159.92 78.2 159.81 78.48 159.59 78.7C159.37 78.9 159.09 79 158.75 79Z" fill="white"/>
</svg>
